<svg xmlns="http://www.w3.org/2000/svg" viewBox="0 0 24 24" fill="currentColor">
  <path d="M12 2a10 10 0 1 0 0 20 10 10 0 0 0 0-20Zm6.32 6h-3.14c-.3-1.61-.85-3.05-1.58-4.06A8.03 8.03 0 0 1 18.32 8ZM12 4.07c.98 1.2 1.75 3.34 2.12 5.93H9.88c.37-2.59 1.14-4.73 2.12-5.93ZM7.4 8c.3-1.61.85-3.05 1.58-4.06A8.03 8.03 0 0 0 5.68 8h1.72ZM4.06 10h3.17c-.05.65-.08 1.32-.08 2s.03 1.35.08 2H4.06a8.02 8.02 0 0 1 0-4Zm1.62 6h1.72c.3 1.61.85 3.05 1.58 4.06A8.03 8.03 0 0 1 5.68 16Zm6.32 3.93c-.98-1.2-1.75-3.34-2.12-5.93h4.24c-.37 2.59-1.14 4.73-2.12 5.93ZM16.6 16h1.72a8.03 8.03 0 0 1-3.3 4.06c.73-1.01 1.28-2.45 1.58-4.06ZM19.94 14h-3.17c.05-.65.08-1.32.08-2s-.03-1.35-.08-2h3.17a8.02 8.02 0 0 1 0 4Z"/>
</svg>
